<?xml version="1.0" encoding="UTF-8"?>
<!DOCTYPE svg PUBLIC "-//W3C//DTD SVG 1.1//EN" "http://www.w3.org/Graphics/SVG/1.1/DTD/svg11.dtd">
<svg xmlns="http://www.w3.org/2000/svg" version="1.1" width="2133px" height="2133px" style="shape-rendering:geometricPrecision; text-rendering:geometricPrecision; image-rendering:optimizeQuality; fill-rule:evenodd; clip-rule:evenodd" xmlns:xlink="http://www.w3.org/1999/xlink">
<g><path style="opacity:1" fill="#fefffe" d="M 1023.5,-0.5 C 1051.83,-0.5 1080.17,-0.5 1108.5,-0.5C 1339.48,13.9361 1536.65,102.269 1700,264.5C 1865.95,437.335 1951.11,644.335 1955.5,885.5C 1953.97,959.652 1939.8,1031.32 1913,1100.5C 1887.34,1167.16 1856.34,1231.16 1820,1292.5C 1773.63,1369.19 1722.96,1442.86 1668,1513.5C 1563.33,1645.21 1450.17,1770.04 1328.5,1888C 1243.68,1969.83 1156.18,2048.33 1066,2123.5C 874.973,1965.48 698.64,1792.14 537,1603.5C 470.134,1524.41 408.134,1441.74 351,1355.5C 307.017,1288.22 268.683,1217.55 236,1143.5C 207.99,1079.47 189.324,1012.8 180,943.5C 166.845,710.651 233.179,503.984 379,323.5C 527.61,147.07 716.777,41.5703 946.5,7C 972.247,3.73611 997.914,1.23611 1023.5,-0.5 Z M 1042.5,444.5 C 1195.92,440.977 1320.75,498.31 1417,616.5C 1499.29,726.941 1526.63,849.941 1499,985.5C 1467.76,1112.57 1395.93,1209.07 1283.5,1275C 1175.55,1333.66 1062.22,1346.99 943.5,1315C 802.743,1270.91 704.91,1180.41 650,1043.5C 614.077,942.063 613.41,840.397 648,738.5C 696.592,610.908 784.425,522.075 911.5,472C 954.007,456.618 997.674,447.451 1042.5,444.5 Z"/></g>
<g><path style="opacity:1" fill="#fefffe" d="M 1043.5,621.5 C 1156.37,617.006 1241.87,662.673 1300,758.5C 1343.02,841.844 1344.35,925.844 1304,1010.5C 1252.3,1103.39 1172.96,1151.72 1066,1155.5C 959.038,1151.72 879.705,1103.39 828,1010.5C 787.666,925.844 788.999,841.844 832,758.5C 879.723,677.989 950.223,632.323 1043.5,621.5 Z"/></g>
</svg>
