<?xml version="1.0" encoding="UTF-8"?>
<!DOCTYPE svg PUBLIC "-//W3C//DTD SVG 1.1//EN" "http://www.w3.org/Graphics/SVG/1.1/DTD/svg11.dtd">
<svg xmlns="http://www.w3.org/2000/svg" version="1.1" width="2133px" height="2133px" style="shape-rendering:geometricPrecision; text-rendering:geometricPrecision; image-rendering:optimizeQuality; fill-rule:evenodd; clip-rule:evenodd" xmlns:xlink="http://www.w3.org/1999/xlink">
<g><path style="opacity:1" fill="#fefffe" d="M 433.5,87.5 C 855.167,87.3333 1276.83,87.5 1698.5,88C 1837.9,94.4498 1951.07,151.617 2038,259.5C 2048.51,273.186 2058.01,287.519 2066.5,302.5C 2066.33,303.167 2066.17,303.833 2066,304.5C 1791.47,579.36 1516.64,853.86 1241.5,1128C 1166.92,1188.65 1082.92,1206.65 989.5,1182C 948.059,1169.46 911.725,1148.46 880.5,1119C 609,847.5 337.5,576 66,304.5C 65.3333,303.167 65.3333,301.833 66,300.5C 138.807,185.62 242.64,116.453 377.5,93C 396.241,90.3428 414.908,88.5095 433.5,87.5 Z"/></g>
<g><path style="opacity:1" fill="#fefffe" d="M 2132.5,516.5 C 2132.5,887.5 2132.5,1258.5 2132.5,1629.5C 2118.95,1772.48 2053.95,1885.31 1937.5,1968C 1865.22,2016 1785.56,2041.33 1698.5,2044C 1487.67,2044.17 1276.83,2044.33 1066,2044.5C 855.167,2044.33 644.333,2044.17 433.5,2044C 286.651,2037.17 169.484,1975.34 82,1858.5C 33.5955,1789.79 6.09546,1713.46 -0.5,1629.5C -0.5,1258.5 -0.5,887.5 -0.5,516.5C 0.855399,508.192 2.3554,499.858 4,491.5C 257.167,744.667 510.333,997.833 763.5,1251C 871.904,1347.37 998.237,1384.7 1142.5,1363C 1229.02,1347.4 1304.36,1310.07 1368.5,1251C 1621.67,997.833 1874.83,744.667 2128,491.5C 2129.64,499.858 2131.14,508.192 2132.5,516.5 Z"/></g>
</svg>
