<?xml version="1.0" encoding="UTF-8"?>
<!DOCTYPE svg PUBLIC "-//W3C//DTD SVG 1.1//EN" "http://www.w3.org/Graphics/SVG/1.1/DTD/svg11.dtd">
<svg xmlns="http://www.w3.org/2000/svg" version="1.1" width="2133px" height="2133px" style="shape-rendering:geometricPrecision; text-rendering:geometricPrecision; image-rendering:optimizeQuality; fill-rule:evenodd; clip-rule:evenodd" xmlns:xlink="http://www.w3.org/1999/xlink">
<g><path style="opacity:1" fill="#fefffe" d="M 2132.5,1025.5 C 2132.5,1056.83 2132.5,1088.17 2132.5,1119.5C 2115.67,1404.6 2005.67,1646.44 1802.5,1845C 1641.68,1996.74 1451.35,2090.57 1231.5,2126.5C 1231.5,1878.5 1231.5,1630.5 1231.5,1382.5C 1314.17,1382.5 1396.83,1382.5 1479.5,1382.5C 1495.27,1280.19 1510.94,1177.85 1526.5,1075.5C 1428.17,1075.5 1329.83,1075.5 1231.5,1075.5C 1231.04,1000.48 1231.54,925.483 1233,850.5C 1241.43,774.075 1283.26,728.242 1358.5,713C 1366.79,711.625 1375.12,710.625 1383.5,710C 1435.5,709.5 1487.5,709.333 1539.5,709.5C 1539.5,622.5 1539.5,535.5 1539.5,448.5C 1453.43,434.161 1366.76,427.327 1279.5,428C 1209.3,429.715 1143.3,447.049 1081.5,480C 1007.58,523.268 956.418,585.435 928,666.5C 911.804,713.481 902.804,761.814 901,811.5C 900.5,899.499 900.333,987.499 900.5,1075.5C 810.5,1075.5 720.5,1075.5 630.5,1075.5C 630.5,1177.83 630.5,1280.17 630.5,1382.5C 720.5,1382.5 810.5,1382.5 900.5,1382.5C 900.5,1630.5 900.5,1878.5 900.5,2126.5C 650.507,2084.62 440.674,1970.62 271,1784.5C 103.943,1594.93 13.4425,1373.26 -0.5,1119.5C -0.5,1088.17 -0.5,1056.83 -0.5,1025.5C 16.2289,737.597 127.896,494.097 334.5,295C 540.455,105.516 784.288,9.01605 1066,5.5C 1347.14,9.04941 1590.64,105.216 1796.5,294C 2003.69,493.261 2115.69,737.095 2132.5,1025.5 Z"/></g>
</svg>
