<?xml version="1.0" encoding="UTF-8"?>
<!DOCTYPE svg PUBLIC "-//W3C//DTD SVG 1.1//EN" "http://www.w3.org/Graphics/SVG/1.1/DTD/svg11.dtd">
<svg xmlns="http://www.w3.org/2000/svg" version="1.1" width="2133px" height="2133px" style="shape-rendering:geometricPrecision; text-rendering:geometricPrecision; image-rendering:optimizeQuality; fill-rule:evenodd; clip-rule:evenodd" xmlns:xlink="http://www.w3.org/1999/xlink">
<g><path style="opacity:1" fill="#fefffe" d="M 798.5,-0.5 C 976.833,-0.5 1155.17,-0.5 1333.5,-0.5C 1408.09,0.751089 1482.76,3.91776 1557.5,9C 1634.95,15.6951 1709.61,33.6951 1781.5,63C 1916,120.167 2011.83,216 2069,350.5C 2105.23,441.638 2124.56,536.305 2127,634.5C 2129.48,689.308 2131.32,743.974 2132.5,798.5C 2132.5,976.833 2132.5,1155.17 2132.5,1333.5C 2131.25,1408.09 2128.08,1482.76 2123,1557.5C 2115.84,1640.14 2095.84,1719.47 2063,1795.5C 1999.15,1933.01 1895.99,2027.84 1753.5,2080C 1690.01,2102.63 1624.68,2116.96 1557.5,2123C 1482.76,2128.08 1408.09,2131.25 1333.5,2132.5C 1155.17,2132.5 976.833,2132.5 798.5,2132.5C 723.91,2131.25 649.244,2128.08 574.5,2123C 491.087,2115.81 411.087,2095.48 334.5,2062C 197.93,1998.09 103.764,1895.26 52,1753.5C 29.3691,1690.01 15.0357,1624.68 9,1557.5C 3.91775,1482.76 0.751079,1408.09 -0.5,1333.5C -0.5,1155.17 -0.5,976.833 -0.5,798.5C 0.751079,723.91 3.91775,649.244 9,574.5C 16.1862,491.087 36.5196,411.087 70,334.5C 133.907,197.93 236.74,103.764 378.5,52C 461.34,22.9705 546.673,7.30382 634.5,5C 689.308,2.51613 743.974,0.682797 798.5,-0.5 Z"/></g>
<g><path style="opacity:1" fill="#23293b" d="M 810.5,192.5 C 1000.5,192.077 1190.5,192.577 1380.5,194C 1428.2,195.196 1475.87,197.196 1523.5,200C 1582.29,203.69 1639.29,215.69 1694.5,236C 1794.8,275.629 1863.3,346.129 1900,447.5C 1921.37,511.059 1932.7,576.393 1934,643.5C 1936.73,699.135 1938.4,754.801 1939,810.5C 1939.67,980.833 1939.67,1151.17 1939,1321.5C 1938.36,1392.91 1935.69,1464.24 1931,1535.5C 1926.52,1592.75 1913.85,1648.08 1893,1701.5C 1852.76,1798.4 1783.26,1864.57 1684.5,1900C 1639.73,1915.62 1593.73,1925.62 1546.5,1930C 1471.6,1935.42 1396.6,1938.42 1321.5,1939C 1151.17,1939.67 980.833,1939.67 810.5,1939C 735.73,1938.44 661.063,1935.44 586.5,1930C 528.622,1924.61 472.956,1910.61 419.5,1888C 326.322,1845.48 263.155,1775.65 230,1678.5C 213.457,1628.12 203.457,1576.45 200,1523.5C 197.196,1475.87 195.196,1428.2 194,1380.5C 192.41,1190.5 192.077,1000.5 193,810.5C 193.681,743.109 196.014,675.775 200,608.5C 204.048,540.31 219.715,474.976 247,412.5C 289.151,325.021 355.984,264.854 447.5,232C 504.567,212.599 563.234,201.599 623.5,199C 685.961,195.812 748.294,193.645 810.5,192.5 Z"/></g>
<g><path style="opacity:1" fill="#fefffe" d="M 1620.5,368.5 C 1674.5,365.087 1716.34,385.753 1746,430.5C 1767.82,471.506 1769.16,513.172 1750,555.5C 1723.19,602.328 1682.69,625.494 1628.5,625C 1574.29,619.83 1536.46,592.33 1515,542.5C 1496.84,485.673 1509.67,437.173 1553.5,397C 1573.28,381.439 1595.62,371.939 1620.5,368.5 Z"/></g>
<g><path style="opacity:1" fill="#fefffe" d="M 1052.5,517.5 C 1221.11,517.084 1362.27,578.418 1476,701.5C 1578.45,820.183 1623.78,958.183 1612,1115.5C 1593.93,1281.2 1518.43,1413.37 1385.5,1512C 1260.09,1598.93 1121.76,1630.26 970.5,1606C 824.543,1577.91 707.71,1504.41 620,1385.5C 533.072,1260.09 501.738,1121.76 526,970.5C 554.094,824.543 627.594,707.71 746.5,620C 838.152,555.394 940.152,521.227 1052.5,517.5 Z"/></g>
<g><path style="opacity:1" fill="#23293b" d="M 1039.5,711.5 C 1168.73,706.214 1272.9,754.214 1352,855.5C 1414.09,943.236 1434.09,1039.9 1412,1145.5C 1383.58,1257.55 1317.41,1338.71 1213.5,1389C 1140.39,1421.53 1064.73,1429.19 986.5,1412C 874.454,1383.58 793.287,1317.41 743,1213.5C 708.146,1134.77 701.813,1053.77 724,970.5C 759.46,855.373 833.293,775.873 945.5,732C 976.143,721.335 1007.48,714.502 1039.5,711.5 Z"/></g>
</svg>
