<?xml version="1.0" encoding="UTF-8"?>
<!DOCTYPE svg PUBLIC "-//W3C//DTD SVG 1.1//EN" "http://www.w3.org/Graphics/SVG/1.1/DTD/svg11.dtd">
<svg xmlns="http://www.w3.org/2000/svg" version="1.1" width="2133px" height="2133px" style="shape-rendering:geometricPrecision; text-rendering:geometricPrecision; image-rendering:optimizeQuality; fill-rule:evenodd; clip-rule:evenodd" xmlns:xlink="http://www.w3.org/1999/xlink">
<g><path style="opacity:1" fill="#fefffe" d="M 1651.5,-0.5 C 1671.83,-0.5 1692.17,-0.5 1712.5,-0.5C 1779.45,8.30949 1836.45,36.8095 1883.5,85C 1911.5,109 1939.5,133 1967.5,157C 2067.51,256.545 2122.51,377.045 2132.5,518.5C 2132.5,543.833 2132.5,569.167 2132.5,594.5C 2125.28,697.421 2103.78,797.421 2068,894.5C 2029.42,998.997 1980.75,1098.33 1922,1192.5C 1742.84,1475.99 1513.34,1710.49 1233.5,1896C 1126.29,1966.28 1012.29,2023.94 891.5,2069C 795.372,2104.29 696.372,2125.45 594.5,2132.5C 569.5,2132.5 544.5,2132.5 519.5,2132.5C 379.676,2123.15 260.176,2069.49 161,1971.5C 123.333,1927.83 85.6667,1884.17 48,1840.5C 20.8755,1801.63 4.7088,1758.63 -0.5,1711.5C -0.5,1692.83 -0.5,1674.17 -0.5,1655.5C 7.04861,1589.57 34.0486,1533.07 80.5,1486C 151.986,1430.76 223.653,1375.76 295.5,1321C 365.721,1256.52 448.054,1232.52 542.5,1249C 597.839,1260.83 645.506,1286.5 685.5,1326C 726.424,1358.38 767.258,1390.88 808,1423.5C 1039.38,1325.18 1219.38,1168.18 1348,952.5C 1375.58,905.517 1400.41,857.017 1422.5,807C 1380.09,752.589 1336.93,698.756 1293,645.5C 1238.65,563.037 1228.65,475.37 1263,382.5C 1276.8,349.394 1296.14,320.06 1321,294.5C 1377.4,220.095 1434.57,146.262 1492.5,73C 1537.63,31.7719 1590.63,7.27191 1651.5,-0.5 Z"/></g>
</svg>
